# Blender 3.3.1
# www.blender.org
mtllib Female character unrigged.mtl
o Cube.011
v -0.432175 -1.918403 1.333026
v -0.432175 2.410159 1.333026
v -0.432175 -1.918403 -1.330149
v -0.432175 2.410159 -1.330149
v 0.432175 -1.918403 1.333026
v 0.432175 2.410159 1.333026
v 0.432175 -1.918403 -1.330149
v 0.432175 2.410159 -1.330149
v -0.432175 -1.295060 1.333026
v -0.310596 0.068621 0.958426
v -0.310596 0.068621 -0.955549
v -0.432175 -1.295060 -1.330149
v 0.310596 0.068621 -0.955549
v 0.432175 -1.295060 -1.330149
v 0.310596 0.068621 0.958426
v 0.432175 -1.295060 1.333026
v -0.317224 -0.754629 0.978848
v -0.227983 -0.313465 0.703885
v -0.227983 -0.313465 -0.701008
v -0.317224 -0.754629 -0.975971
v 0.227983 -0.313465 -0.701008
v 0.317224 -0.754629 -0.975971
v 0.227983 -0.313465 0.703885
v 0.317224 -0.754629 0.978848
v -0.285508 -4.918544 -0.528791
v -0.285508 -1.655596 -0.528791
v -0.285508 -4.918544 -1.099807
v -0.285508 -1.655596 -1.099807
v 0.285508 -4.918544 -0.528791
v 0.285508 -1.655596 -0.528791
v 0.285508 -4.918544 -1.099807
v 0.285508 -1.655596 -1.099807
v -0.285508 -4.918544 1.102684
v -0.285508 -1.655596 1.102684
v -0.285508 -4.918544 0.531667
v -0.285508 -1.655596 0.531667
v 0.285508 -4.918544 1.102684
v 0.285508 -1.655596 1.102684
v 0.285508 -4.918544 0.531667
v 0.285508 -1.655596 0.531667
v -0.288971 -0.920312 1.819315
v -0.288971 2.382210 1.819315
v -0.288971 -0.920312 1.241373
v -0.288971 2.382210 1.241373
v 0.288971 -0.920312 1.819315
v 0.288971 2.382210 1.819315
v 0.288971 -0.920312 1.241373
v 0.288971 2.382210 1.241373
v -0.288971 -0.920312 -1.250469
v -0.288971 2.382210 -1.250469
v -0.288971 -0.920312 -1.828411
v -0.288971 2.382210 -1.828411
v 0.288971 -0.920312 -1.250469
v 0.288971 2.382210 -1.250469
v 0.288971 -0.920312 -1.828411
v 0.288971 2.382210 -1.828411
v -0.588619 2.772534 0.589992
v -0.588619 3.949771 0.589992
v -0.588619 2.772534 -0.587245
v -0.588619 3.949771 -0.587245
v 0.588619 2.772534 0.589992
v 0.588619 3.949771 0.589992
v 0.588619 2.772534 -0.587245
v 0.588619 3.949771 -0.587245
v -0.239182 2.122084 0.332388
v -0.239182 3.182874 0.332388
v -0.239182 2.122084 -0.331328
v -0.239182 3.182874 -0.331328
v 0.239182 2.122084 0.332388
v 0.239182 3.182874 0.332388
v 0.239182 2.122084 -0.331328
v 0.239182 3.182874 -0.331328
vn -0.9987 -0.0519 -0.0000
vn -0.0000 -0.1580 -0.9874
vn 0.9987 -0.0519 -0.0000
vn -0.0000 -0.1580 0.9874
vn -0.0000 -1.0000 -0.0000
vn -0.0000 1.0000 -0.0000
vn -0.0000 -0.0000 1.0000
vn -0.0000 -0.5544 0.8322
vn 1.0000 -0.0000 -0.0000
vn 0.9774 -0.2113 -0.0000
vn -0.0000 -0.0000 -1.0000
vn -0.0000 -0.5544 -0.8322
vn -1.0000 -0.0000 -0.0000
vn -0.9774 -0.2113 -0.0000
vn -0.9781 0.2080 -0.0000
vn -0.9801 0.1983 -0.0000
vn -0.0000 0.5481 -0.8364
vn -0.0000 0.5289 -0.8487
vn 0.9781 0.2080 -0.0000
vn 0.9801 0.1983 -0.0000
vn -0.0000 0.5481 0.8364
vn -0.0000 0.5289 0.8487
vt 0.125000 0.750000
vt 0.375000 1.000000
vt 0.375000 0.000000
vt 0.625000 0.000000
vt 0.625000 1.000000
vt 0.875000 0.750000
vt 0.125000 0.500000
vt 0.375000 0.250000
vt 0.625000 0.250000
vt 0.875000 0.500000
vt 0.375000 0.750000
vt 0.625000 0.750000
vt 0.375000 0.500000
vt 0.625000 0.500000
vt 0.411002 0.000000
vt 0.411002 1.000000
vt 0.494335 1.000000
vt 0.494335 0.000000
vt 0.494335 0.250000
vt 0.411002 0.250000
vt 0.494335 0.500000
vt 0.411002 0.500000
vt 0.494335 0.750000
vt 0.411002 0.750000
vt 0.438780 0.000000
vt 0.438779 1.000000
vt 0.466557 0.000000
vt 0.466557 1.000000
vt 0.466557 0.250000
vt 0.438780 0.250000
vt 0.466557 0.500000
vt 0.438780 0.500000
vt 0.466557 0.750000
vt 0.438780 0.750000
vt 0.375000 0.000000
vt 0.375000 1.000000
vt 0.125000 0.750000
vt 0.625000 0.000000
vt 0.625000 1.000000
vt 0.875000 0.750000
vt 0.375000 0.250000
vt 0.125000 0.500000
vt 0.625000 0.250000
vt 0.875000 0.500000
vt 0.375000 0.750000
vt 0.625000 0.750000
vt 0.375000 0.500000
vt 0.625000 0.500000
vt 0.375000 0.000000
vt 0.375000 1.000000
vt 0.125000 0.750000
vt 0.625000 0.000000
vt 0.625000 1.000000
vt 0.875000 0.750000
vt 0.375000 0.250000
vt 0.125000 0.500000
vt 0.625000 0.250000
vt 0.875000 0.500000
vt 0.375000 0.750000
vt 0.625000 0.750000
vt 0.375000 0.500000
vt 0.625000 0.500000
vt 0.375000 0.000000
vt 0.375000 1.000000
vt 0.125000 0.750000
vt 0.625000 0.000000
vt 0.625000 1.000000
vt 0.875000 0.750000
vt 0.375000 0.250000
vt 0.125000 0.500000
vt 0.625000 0.250000
vt 0.875000 0.500000
vt 0.375000 0.750000
vt 0.625000 0.750000
vt 0.375000 0.500000
vt 0.625000 0.500000
vt 0.375000 0.000000
vt 0.375000 1.000000
vt 0.125000 0.750000
vt 0.625000 0.000000
vt 0.625000 1.000000
vt 0.875000 0.750000
vt 0.375000 0.250000
vt 0.125000 0.500000
vt 0.625000 0.250000
vt 0.875000 0.500000
vt 0.375000 0.750000
vt 0.625000 0.750000
vt 0.375000 0.500000
vt 0.625000 0.500000
vt 0.375000 0.000000
vt 0.375000 1.000000
vt 0.125000 0.750000
vt 0.625000 0.000000
vt 0.625000 1.000000
vt 0.875000 0.750000
vt 0.375000 0.250000
vt 0.125000 0.500000
vt 0.625000 0.250000
vt 0.875000 0.500000
vt 0.375000 0.750000
vt 0.625000 0.750000
vt 0.375000 0.500000
vt 0.625000 0.500000
vt 0.375000 0.000000
vt 0.375000 1.000000
vt 0.125000 0.750000
vt 0.625000 0.000000
vt 0.625000 1.000000
vt 0.875000 0.750000
vt 0.375000 0.250000
vt 0.125000 0.500000
vt 0.625000 0.250000
vt 0.875000 0.500000
vt 0.375000 0.750000
vt 0.625000 0.750000
vt 0.375000 0.500000
vt 0.625000 0.500000
s 0
f 10/18/1 2/4/1 4/9/1 11/19/1
f 11/19/2 4/9/2 8/14/2 13/21/2
f 13/21/3 8/14/3 6/12/3 15/23/3
f 15/23/4 6/12/4 2/5/4 10/17/4
f 3/7/5 7/13/5 5/11/5 1/1/5
f 8/14/6 4/10/6 2/6/6 6/12/6
f 5/11/7 16/24/7 9/16/7 1/2/7
f 23/33/8 15/23/8 10/17/8 18/28/8
f 7/13/9 14/22/9 16/24/9 5/11/9
f 21/31/10 13/21/10 15/23/10 23/33/10
f 3/8/11 12/20/11 14/22/11 7/13/11
f 19/29/12 11/19/12 13/21/12 21/31/12
f 1/3/13 9/15/13 12/20/13 3/8/13
f 18/27/14 10/18/14 11/19/14 19/29/14
f 9/15/15 17/25/15 20/30/15 12/20/15
f 17/25/16 18/27/16 19/29/16 20/30/16
f 12/20/17 20/30/17 22/32/17 14/22/17
f 20/30/18 19/29/18 21/31/18 22/32/18
f 14/22/19 22/32/19 24/34/19 16/24/19
f 22/32/20 21/31/20 23/33/20 24/34/20
f 16/24/21 24/34/21 17/26/21 9/16/21
f 24/34/22 23/33/22 18/28/22 17/26/22
f 25/35/13 26/38/13 28/43/13 27/41/13
f 27/41/11 28/43/11 32/48/11 31/47/11
f 31/47/9 32/48/9 30/46/9 29/45/9
f 29/45/7 30/46/7 26/39/7 25/36/7
f 27/42/5 31/47/5 29/45/5 25/37/5
f 32/48/6 28/44/6 26/40/6 30/46/6
f 33/49/13 34/52/13 36/57/13 35/55/13
f 35/55/11 36/57/11 40/62/11 39/61/11
f 39/61/9 40/62/9 38/60/9 37/59/9
f 37/59/7 38/60/7 34/53/7 33/50/7
f 35/56/5 39/61/5 37/59/5 33/51/5
f 40/62/6 36/58/6 34/54/6 38/60/6
f 41/63/13 42/66/13 44/71/13 43/69/13
f 43/69/11 44/71/11 48/76/11 47/75/11
f 47/75/9 48/76/9 46/74/9 45/73/9
f 45/73/7 46/74/7 42/67/7 41/64/7
f 43/70/5 47/75/5 45/73/5 41/65/5
f 48/76/6 44/72/6 42/68/6 46/74/6
f 49/77/13 50/80/13 52/85/13 51/83/13
f 51/83/11 52/85/11 56/90/11 55/89/11
f 55/89/9 56/90/9 54/88/9 53/87/9
f 53/87/7 54/88/7 50/81/7 49/78/7
f 51/84/5 55/89/5 53/87/5 49/79/5
f 56/90/6 52/86/6 50/82/6 54/88/6
f 57/91/13 58/94/13 60/99/13 59/97/13
f 59/97/11 60/99/11 64/104/11 63/103/11
f 63/103/9 64/104/9 62/102/9 61/101/9
f 61/101/7 62/102/7 58/95/7 57/92/7
f 59/98/5 63/103/5 61/101/5 57/93/5
f 64/104/6 60/100/6 58/96/6 62/102/6
f 65/105/13 66/108/13 68/113/13 67/111/13
f 67/111/11 68/113/11 72/118/11 71/117/11
f 71/117/9 72/118/9 70/116/9 69/115/9
f 69/115/7 70/116/7 66/109/7 65/106/7
f 67/112/5 71/117/5 69/115/5 65/107/5
f 72/118/6 68/114/6 66/110/6 70/116/6
