# Blender 3.3.1
# www.blender.org
mtllib Male character unrigged.mtl
o Cube.002
v -0.471103 -2.016837 1.456914
v -0.471103 2.701625 1.456914
v -0.471103 -2.016837 -1.446148
v -0.471103 2.701625 -1.446148
v 0.471103 -2.016837 1.456914
v 0.471103 2.701625 1.456914
v 0.471103 -2.016837 -1.446148
v 0.471103 2.701625 -1.446148
v -0.471103 -1.337346 1.456914
v -0.471103 0.235475 1.456914
v -0.471103 0.235475 -1.446148
v -0.471103 -1.337346 -1.446148
v 0.471103 0.235475 -1.446148
v 0.471103 -1.337346 -1.446148
v 0.471103 0.235475 1.456914
v 0.471103 -1.337346 1.456914
v -0.428805 -0.789536 1.326587
v -0.428805 -0.312335 1.326587
v -0.428805 -0.312335 -1.315821
v -0.428805 -0.789536 -1.315821
v 0.428805 -0.312335 -1.315821
v 0.428805 -0.789536 -1.315821
v 0.428805 -0.312335 1.326587
v 0.428805 -0.789536 1.326587
v -0.301078 2.288521 0.422059
v -0.301078 3.623827 0.422059
v -0.301078 2.288521 -0.413416
v -0.301078 3.623827 -0.413416
v 0.301078 2.288521 0.422059
v 0.301078 3.623827 0.422059
v 0.301078 2.288521 -0.413416
v 0.301078 3.623827 -0.413416
v -0.740944 3.107297 0.746327
v -0.740944 4.589185 0.746327
v -0.740944 3.107297 -0.735561
v -0.740944 4.589185 -0.735561
v 0.740944 3.107297 0.746327
v 0.740944 4.589185 0.746327
v 0.740944 3.107297 -0.735561
v 0.740944 4.589185 -0.735561
v -0.350000 -1.419885 -1.426363
v -0.350000 2.580115 -1.426363
v -0.350000 -1.419885 -2.126364
v -0.350000 2.580115 -2.126364
v 0.350000 -1.419885 -1.426363
v 0.350000 2.580115 -1.426363
v 0.350000 -1.419885 -2.126364
v 0.350000 2.580115 -2.126364
v -0.350000 -1.419885 2.089744
v -0.350000 2.580115 2.089744
v -0.350000 -1.419885 1.389744
v -0.350000 2.580115 1.389744
v 0.350000 -1.419885 2.089744
v 0.350000 2.580115 2.089744
v 0.350000 -1.419885 1.389744
v 0.350000 2.580115 1.389744
v -0.350000 -5.602584 1.355383
v -0.350000 -1.602584 1.355383
v -0.350000 -5.602584 0.655383
v -0.350000 -1.602584 0.655383
v 0.350000 -5.602584 1.355383
v 0.350000 -1.602584 1.355383
v 0.350000 -5.602584 0.655383
v 0.350000 -1.602584 0.655383
v -0.350000 -5.602584 -0.644617
v -0.350000 -1.602584 -0.644617
v -0.350000 -5.602584 -1.344617
v -0.350000 -1.602584 -1.344617
v 0.350000 -5.602584 -0.644617
v 0.350000 -1.602584 -0.644617
v 0.350000 -5.602584 -1.344617
v 0.350000 -1.602584 -1.344617
vn -1.0000 -0.0000 -0.0000
vn -0.0000 -0.0000 -1.0000
vn 1.0000 -0.0000 -0.0000
vn -0.0000 -0.0000 1.0000
vn -0.0000 -1.0000 -0.0000
vn -0.0000 1.0000 -0.0000
vn -0.0000 -0.2314 0.9728
vn 0.9970 -0.0770 -0.0000
vn -0.0000 -0.2314 -0.9728
vn -0.9970 -0.0770 -0.0000
vn -0.9970 0.0770 -0.0000
vn -0.0000 0.2314 -0.9728
vn 0.9970 0.0770 -0.0000
vn -0.0000 0.2314 0.9728
vt 0.125000 0.750000
vt 0.375000 1.000000
vt 0.375000 0.000000
vt 0.625000 0.000000
vt 0.625000 1.000000
vt 0.875000 0.750000
vt 0.125000 0.500000
vt 0.375000 0.250000
vt 0.625000 0.250000
vt 0.875000 0.500000
vt 0.375000 0.750000
vt 0.625000 0.750000
vt 0.375000 0.500000
vt 0.625000 0.500000
vt 0.411002 0.000000
vt 0.411002 1.000000
vt 0.494335 1.000000
vt 0.494335 0.000000
vt 0.494335 0.250000
vt 0.411002 0.250000
vt 0.494335 0.500000
vt 0.411002 0.500000
vt 0.494335 0.750000
vt 0.411002 0.750000
vt 0.438780 0.000000
vt 0.438779 1.000000
vt 0.466557 0.000000
vt 0.466557 1.000000
vt 0.466557 0.250000
vt 0.438780 0.250000
vt 0.466557 0.500000
vt 0.438780 0.500000
vt 0.466557 0.750000
vt 0.438780 0.750000
vt 0.375000 0.000000
vt 0.375000 1.000000
vt 0.125000 0.750000
vt 0.625000 0.000000
vt 0.625000 1.000000
vt 0.875000 0.750000
vt 0.375000 0.250000
vt 0.125000 0.500000
vt 0.625000 0.250000
vt 0.875000 0.500000
vt 0.375000 0.750000
vt 0.625000 0.750000
vt 0.375000 0.500000
vt 0.625000 0.500000
vt 0.375000 0.000000
vt 0.375000 1.000000
vt 0.125000 0.750000
vt 0.625000 0.000000
vt 0.625000 1.000000
vt 0.875000 0.750000
vt 0.375000 0.250000
vt 0.125000 0.500000
vt 0.625000 0.250000
vt 0.875000 0.500000
vt 0.375000 0.750000
vt 0.625000 0.750000
vt 0.375000 0.500000
vt 0.625000 0.500000
vt 0.375000 0.000000
vt 0.375000 1.000000
vt 0.125000 0.750000
vt 0.625000 0.000000
vt 0.625000 1.000000
vt 0.875000 0.750000
vt 0.375000 0.250000
vt 0.125000 0.500000
vt 0.625000 0.250000
vt 0.875000 0.500000
vt 0.375000 0.750000
vt 0.625000 0.750000
vt 0.375000 0.500000
vt 0.625000 0.500000
vt 0.375000 0.000000
vt 0.375000 1.000000
vt 0.125000 0.750000
vt 0.625000 0.000000
vt 0.625000 1.000000
vt 0.875000 0.750000
vt 0.375000 0.250000
vt 0.125000 0.500000
vt 0.625000 0.250000
vt 0.875000 0.500000
vt 0.375000 0.750000
vt 0.625000 0.750000
vt 0.375000 0.500000
vt 0.625000 0.500000
vt 0.375000 0.000000
vt 0.375000 1.000000
vt 0.125000 0.750000
vt 0.625000 0.000000
vt 0.625000 1.000000
vt 0.875000 0.750000
vt 0.375000 0.250000
vt 0.125000 0.500000
vt 0.625000 0.250000
vt 0.875000 0.500000
vt 0.375000 0.750000
vt 0.625000 0.750000
vt 0.375000 0.500000
vt 0.625000 0.500000
vt 0.375000 0.000000
vt 0.375000 1.000000
vt 0.125000 0.750000
vt 0.625000 0.000000
vt 0.625000 1.000000
vt 0.875000 0.750000
vt 0.375000 0.250000
vt 0.125000 0.500000
vt 0.625000 0.250000
vt 0.875000 0.500000
vt 0.375000 0.750000
vt 0.625000 0.750000
vt 0.375000 0.500000
vt 0.625000 0.500000
s 0
f 10/18/1 2/4/1 4/9/1 11/19/1
f 11/19/2 4/9/2 8/14/2 13/21/2
f 13/21/3 8/14/3 6/12/3 15/23/3
f 15/23/4 6/12/4 2/5/4 10/17/4
f 3/7/5 7/13/5 5/11/5 1/1/5
f 8/14/6 4/10/6 2/6/6 6/12/6
f 5/11/4 16/24/4 9/16/4 1/2/4
f 23/33/7 15/23/7 10/17/7 18/28/7
f 7/13/3 14/22/3 16/24/3 5/11/3
f 21/31/8 13/21/8 15/23/8 23/33/8
f 3/8/2 12/20/2 14/22/2 7/13/2
f 19/29/9 11/19/9 13/21/9 21/31/9
f 1/3/1 9/15/1 12/20/1 3/8/1
f 18/27/10 10/18/10 11/19/10 19/29/10
f 9/15/11 17/25/11 20/30/11 12/20/11
f 17/25/1 18/27/1 19/29/1 20/30/1
f 12/20/12 20/30/12 22/32/12 14/22/12
f 20/30/2 19/29/2 21/31/2 22/32/2
f 14/22/13 22/32/13 24/34/13 16/24/13
f 22/32/3 21/31/3 23/33/3 24/34/3
f 16/24/14 24/34/14 17/26/14 9/16/14
f 24/34/4 23/33/4 18/28/4 17/26/4
f 25/35/1 26/38/1 28/43/1 27/41/1
f 27/41/2 28/43/2 32/48/2 31/47/2
f 31/47/3 32/48/3 30/46/3 29/45/3
f 29/45/4 30/46/4 26/39/4 25/36/4
f 27/42/5 31/47/5 29/45/5 25/37/5
f 32/48/6 28/44/6 26/40/6 30/46/6
f 33/49/1 34/52/1 36/57/1 35/55/1
f 35/55/2 36/57/2 40/62/2 39/61/2
f 39/61/3 40/62/3 38/60/3 37/59/3
f 37/59/4 38/60/4 34/53/4 33/50/4
f 35/56/5 39/61/5 37/59/5 33/51/5
f 40/62/6 36/58/6 34/54/6 38/60/6
f 41/63/1 42/66/1 44/71/1 43/69/1
f 43/69/2 44/71/2 48/76/2 47/75/2
f 47/75/3 48/76/3 46/74/3 45/73/3
f 45/73/4 46/74/4 42/67/4 41/64/4
f 43/70/5 47/75/5 45/73/5 41/65/5
f 48/76/6 44/72/6 42/68/6 46/74/6
f 49/77/1 50/80/1 52/85/1 51/83/1
f 51/83/2 52/85/2 56/90/2 55/89/2
f 55/89/3 56/90/3 54/88/3 53/87/3
f 53/87/4 54/88/4 50/81/4 49/78/4
f 51/84/5 55/89/5 53/87/5 49/79/5
f 56/90/6 52/86/6 50/82/6 54/88/6
f 57/91/1 58/94/1 60/99/1 59/97/1
f 59/97/2 60/99/2 64/104/2 63/103/2
f 63/103/3 64/104/3 62/102/3 61/101/3
f 61/101/4 62/102/4 58/95/4 57/92/4
f 59/98/5 63/103/5 61/101/5 57/93/5
f 64/104/6 60/100/6 58/96/6 62/102/6
f 65/105/1 66/108/1 68/113/1 67/111/1
f 67/111/2 68/113/2 72/118/2 71/117/2
f 71/117/3 72/118/3 70/116/3 69/115/3
f 69/115/4 70/116/4 66/109/4 65/106/4
f 67/112/5 71/117/5 69/115/5 65/107/5
f 72/118/6 68/114/6 66/110/6 70/116/6
