# Blender 3.3.1
# www.blender.org
mtllib Chair.mtl
o Cube.012
v -3.526819 -0.813469 4.813746
v -3.526819 -0.424376 4.813746
v -3.526819 -0.813469 -2.280235
v -3.526819 -0.424376 -2.280235
v 3.567161 -0.813469 4.813746
v 3.567161 -0.424376 4.813746
v 3.567161 -0.813469 -2.280235
v 3.567161 -0.424376 -2.280235
v -3.526816 -0.795378 -2.297813
v -3.526816 -0.795378 -1.908721
v -2.565361 9.376245 -2.190231
v -2.565361 9.376245 -2.016303
v 3.567165 -0.795378 -2.297813
v 3.567165 -0.795378 -1.908721
v 2.605710 9.376245 -2.190231
v 2.605710 9.376245 -2.016303
v -2.825788 5.962050 -2.259363
v -2.825788 3.110196 -2.259363
v -2.825788 3.110196 -1.947171
v -2.825788 5.962050 -1.947171
v 2.866136 3.110196 -2.259363
v 2.866136 5.962050 -2.259363
v 2.866136 5.962050 -1.947171
v 2.866136 3.110196 -1.947171
v -3.526816 0.981789 -2.297813
v 3.567165 0.981789 -1.908721
v -3.526816 0.981789 -1.908721
v 3.567165 0.981789 -2.297813
v -2.565361 8.581837 -2.016303
v 2.605710 8.581837 -2.190231
v -2.565361 8.581837 -2.190231
v 2.605710 8.581837 -2.016303
v 3.479826 -0.747363 3.760763
v 3.479826 -5.747363 3.760763
v 3.479826 -0.747363 4.760763
v 3.479826 -5.747363 4.760763
v 2.479826 -0.747363 3.760763
v 2.479826 -5.747363 3.760763
v 2.479826 -0.747363 4.760763
v 2.479826 -5.747363 4.760763
v 3.479826 -0.747363 -2.239236
v 3.479826 -5.747363 -2.239236
v 3.479826 -0.747363 -1.239236
v 3.479826 -5.747363 -1.239236
v 2.479826 -0.747363 -2.239236
v 2.479826 -5.747363 -2.239236
v 2.479826 -0.747363 -1.239236
v 2.479826 -5.747363 -1.239236
v -2.520173 -0.747363 -2.239236
v -2.520173 -5.747363 -2.239236
v -2.520173 -0.747363 -1.239236
v -2.520173 -5.747363 -1.239236
v -3.520173 -0.747363 -2.239236
v -3.520173 -5.747363 -2.239236
v -3.520173 -0.747363 -1.239236
v -3.520173 -5.747363 -1.239236
v -2.520173 -0.747363 3.760763
v -2.520173 -5.747363 3.760763
v -2.520173 -0.747363 4.760763
v -2.520173 -5.747363 4.760763
v -3.520173 -0.747363 3.760763
v -3.520173 -5.747363 3.760763
v -3.520173 -0.747363 4.760763
v -3.520173 -5.747363 4.760763
vn -1.0000 -0.0000 -0.0000
vn -0.0000 -0.0000 -1.0000
vn 1.0000 -0.0000 -0.0000
vn -0.0000 -0.0000 1.0000
vn -0.0000 -1.0000 -0.0000
vn -0.0000 1.0000 -0.0000
vn -0.0000 0.0264 0.9997
vn -0.0000 0.0264 -0.9997
vn 0.9951 0.0989 -0.0000
vn -0.9498 0.3128 -0.0000
vn -0.0000 0.0181 0.9998
vn -0.0000 0.0181 -0.9998
vn 0.9498 0.3128 -0.0000
vn -0.9951 0.0989 -0.0000
vt 0.375000 0.000000
vt 0.375000 1.000000
vt 0.125000 0.750000
vt 0.625000 0.000000
vt 0.625000 1.000000
vt 0.875000 0.750000
vt 0.375000 0.250000
vt 0.125000 0.500000
vt 0.625000 0.250000
vt 0.875000 0.500000
vt 0.375000 0.750000
vt 0.625000 0.750000
vt 0.375000 0.500000
vt 0.625000 0.500000
vt 0.375000 1.000000
vt 0.125000 0.750000
vt 0.375000 0.000000
vt 0.625000 1.000000
vt 0.875000 0.750000
vt 0.625000 0.000000
vt 0.375000 0.250000
vt 0.125000 0.500000
vt 0.625000 0.250000
vt 0.875000 0.500000
vt 0.375000 0.750000
vt 0.625000 0.750000
vt 0.375000 0.500000
vt 0.625000 0.500000
vt 0.125000 0.583333
vt 0.375000 0.166667
vt 0.375000 0.083333
vt 0.125000 0.666667
vt 0.625000 0.083333
vt 0.875000 0.666667
vt 0.875000 0.583333
vt 0.625000 0.166667
vt 0.375000 0.666667
vt 0.375000 0.583333
vt 0.625000 0.583333
vt 0.625000 0.666667
vt 0.375000 0.041667
vt 0.125000 0.708333
vt 0.625000 0.708333
vt 0.625000 0.041667
vt 0.875000 0.708333
vt 0.375000 0.708333
vt 0.875000 0.541667
vt 0.625000 0.208333
vt 0.375000 0.541667
vt 0.125000 0.541667
vt 0.375000 0.208333
vt 0.625000 0.541667
vt 0.625000 0.500000
vt 0.375000 0.500000
vt 0.625000 0.750000
vt 0.375000 0.750000
vt 0.875000 0.500000
vt 0.625000 0.250000
vt 0.125000 0.500000
vt 0.375000 0.250000
vt 0.875000 0.750000
vt 0.625000 1.000000
vt 0.625000 0.000000
vt 0.375000 1.000000
vt 0.375000 0.000000
vt 0.125000 0.750000
vt 0.625000 0.500000
vt 0.375000 0.500000
vt 0.625000 0.750000
vt 0.375000 0.750000
vt 0.875000 0.500000
vt 0.625000 0.250000
vt 0.125000 0.500000
vt 0.375000 0.250000
vt 0.875000 0.750000
vt 0.625000 1.000000
vt 0.625000 0.000000
vt 0.375000 1.000000
vt 0.375000 0.000000
vt 0.125000 0.750000
vt 0.625000 0.500000
vt 0.375000 0.500000
vt 0.625000 0.750000
vt 0.375000 0.750000
vt 0.875000 0.500000
vt 0.625000 0.250000
vt 0.125000 0.500000
vt 0.375000 0.250000
vt 0.875000 0.750000
vt 0.625000 1.000000
vt 0.625000 0.000000
vt 0.375000 1.000000
vt 0.375000 0.000000
vt 0.125000 0.750000
vt 0.625000 0.500000
vt 0.375000 0.500000
vt 0.625000 0.750000
vt 0.375000 0.750000
vt 0.875000 0.500000
vt 0.625000 0.250000
vt 0.125000 0.500000
vt 0.375000 0.250000
vt 0.875000 0.750000
vt 0.625000 1.000000
vt 0.625000 0.000000
vt 0.375000 1.000000
vt 0.375000 0.000000
vt 0.125000 0.750000
s 0
usemtl Material.006
f 1/1/1 2/4/1 4/9/1 3/7/1
f 3/7/2 4/9/2 8/14/2 7/13/2
f 7/13/3 8/14/3 6/12/3 5/11/3
f 5/11/4 6/12/4 2/5/4 1/2/4
f 3/8/5 7/13/5 5/11/5 1/3/5
f 8/14/6 4/10/6 2/6/6 6/12/6
usemtl Material.007
f 31/51/1 29/48/1 12/23/1 11/21/1
f 11/21/6 12/23/6 16/28/6 15/27/6
f 28/46/3 26/43/3 14/26/3 13/25/3
f 13/25/5 14/26/5 10/18/5 9/15/5
f 25/42/2 28/46/2 13/25/2 9/16/2
f 26/43/4 27/45/4 10/19/4 14/26/4
f 32/52/7 29/47/7 20/35/7 23/39/7
f 23/39/4 20/35/4 19/34/4 24/40/4
f 31/50/8 30/49/8 22/38/8 17/29/8
f 17/29/2 22/38/2 21/37/2 18/32/2
f 30/49/9 32/52/9 23/39/9 22/38/9
f 22/38/3 23/39/3 24/40/3 21/37/3
f 25/41/10 27/44/10 19/33/10 18/31/10
f 18/31/1 19/33/1 20/36/1 17/30/1
f 9/17/1 10/20/1 27/44/1 25/41/1
f 24/40/11 19/34/11 27/45/11 26/43/11
f 18/32/12 21/37/12 28/46/12 25/42/12
f 21/37/13 24/40/13 26/43/13 28/46/13
f 15/27/3 16/28/3 32/52/3 30/49/3
f 11/22/2 15/27/2 30/49/2 31/50/2
f 16/28/4 12/24/4 29/47/4 32/52/4
f 17/30/14 20/36/14 29/48/14 31/51/14
f 33/53/6 37/57/6 39/61/6 35/55/6
f 36/56/4 35/55/4 39/62/4 40/64/4
f 40/65/1 39/63/1 37/58/1 38/60/1
f 38/59/5 34/54/5 36/56/5 40/66/5
f 34/54/3 33/53/3 35/55/3 36/56/3
f 38/60/2 37/58/2 33/53/2 34/54/2
f 41/67/6 45/71/6 47/75/6 43/69/6
f 44/70/4 43/69/4 47/76/4 48/78/4
f 48/79/1 47/77/1 45/72/1 46/74/1
f 46/73/5 42/68/5 44/70/5 48/80/5
f 42/68/3 41/67/3 43/69/3 44/70/3
f 46/74/2 45/72/2 41/67/2 42/68/2
f 49/81/6 53/85/6 55/89/6 51/83/6
f 52/84/4 51/83/4 55/90/4 56/92/4
f 56/93/1 55/91/1 53/86/1 54/88/1
f 54/87/5 50/82/5 52/84/5 56/94/5
f 50/82/3 49/81/3 51/83/3 52/84/3
f 54/88/2 53/86/2 49/81/2 50/82/2
f 57/95/6 61/99/6 63/103/6 59/97/6
f 60/98/4 59/97/4 63/104/4 64/106/4
f 64/107/1 63/105/1 61/100/1 62/102/1
f 62/101/5 58/96/5 60/98/5 64/108/5
f 58/96/3 57/95/3 59/97/3 60/98/3
f 62/102/2 61/100/2 57/95/2 58/96/2
